<?xml version="1.0" standalone="no"?>
<!DOCTYPE svg PUBLIC "-//W3C//DTD SVG 20010904//EN"
 "http://www.w3.org/TR/2001/REC-SVG-20010904/DTD/svg10.dtd">
<svg version="1.0" xmlns="http://www.w3.org/2000/svg"
 width="1280.000000pt" height="1280.000000pt" viewBox="0 0 1280.000000 1280.000000"
 preserveAspectRatio="xMidYMid meet">
<metadata>
Created by potrace 1.16, written by Peter Selinger 2001-2019
</metadata>
<g transform="translate(0.000000,1280.000000) scale(0.100000,-0.100000)"
fill="#000000" stroke="none">
<path d="M9052 11643 c-18 -7 -30 -42 -47 -129 -19 -101 -50 -167 -100 -213
-62 -57 -93 -60 -201 -18 -49 19 -131 55 -181 81 -51 25 -128 58 -170 72 -74
25 -86 26 -233 22 -135 -4 -165 -8 -229 -31 -93 -33 -168 -82 -252 -166 -80
-80 -115 -145 -130 -242 -11 -74 -5 -178 12 -211 13 -25 52 -23 181 9 l109 27
126 -18 c123 -18 125 -18 151 1 93 69 123 68 340 -12 208 -76 304 -98 427 -99
93 -1 104 1 154 29 63 34 209 169 252 231 78 114 76 293 -6 458 -39 79 -107
168 -151 197 -31 20 -32 20 -52 12z"/>
<path d="M7742 10659 c-88 -13 -159 -42 -247 -100 -141 -92 -261 -231 -331
-385 -19 -42 -34 -77 -34 -78 0 -8 55 -16 210 -31 216 -20 255 -25 271 -36 15
-11 22 -4 -236 -238 -158 -144 -185 -177 -185 -229 0 -68 169 -211 299 -253
55 -18 93 -22 233 -24 183 -2 198 -7 198 -56 0 -60 -107 -234 -388 -632 -62
-86 -112 -164 -112 -171 0 -8 30 -75 66 -150 37 -75 63 -140 59 -144 -3 -4
-336 -8 -738 -10 l-732 -2 -155 136 c-391 344 -748 559 -1147 688 -288 93
-609 117 -933 70 -172 -25 -376 -100 -622 -226 -148 -76 -194 -114 -184 -151
3 -14 70 -110 147 -214 153 -202 176 -242 159 -273 -31 -58 -249 -68 -1805
-80 -1323 -10 -1392 -14 -1410 -71 -10 -32 14 -89 42 -100 80 -30 636 -39
5018 -79 1687 -15 2893 -29 3077 -35 l167 -6 -6 113 c-3 73 -1 134 6 171 17
80 73 187 131 251 58 63 168 124 237 133 43 5 51 2 77 -23 116 -115 173 -551
103 -791 -26 -90 -45 -125 -82 -149 -60 -39 -188 0 -293 90 -30 26 -66 49 -80
54 -34 9 -688 9 -697 0 -4 -4 11 -46 33 -95 68 -147 117 -347 110 -447 -2 -40
-8 -53 -31 -70 -27 -20 -40 -21 -285 -21 -141 0 -333 3 -427 7 l-170 7 -125
-104 c-372 -313 -794 -549 -1229 -689 -223 -72 -380 -102 -607 -115 -146 -8
-164 -12 -164 -37 0 -8 41 -108 91 -222 138 -314 209 -482 209 -496 0 -12
-179 -69 -748 -237 -145 -42 -265 -79 -266 -81 -2 -2 -64 -178 -138 -393 -192
-550 -278 -830 -278 -902 0 -38 72 -181 181 -362 90 -148 140 -213 183 -236
33 -18 34 -18 67 3 19 11 66 58 106 104 94 108 253 319 253 335 0 15 -56 44
-220 113 -69 28 -129 55 -134 60 -5 5 35 92 89 197 144 276 305 577 313 585
12 12 891 118 976 118 34 0 56 -8 96 -35 70 -47 220 -184 220 -201 0 -12 -228
-803 -341 -1184 -259 -869 -489 -1527 -620 -1767 -21 -40 -68 -117 -104 -172
-36 -55 -65 -107 -65 -114 0 -17 200 -27 531 -27 l217 0 4 142 c6 164 21 228
119 522 147 437 253 706 404 1026 110 233 591 1170 697 1358 l29 52 82 0 c205
0 715 -59 997 -116 395 -79 1614 -370 1667 -398 37 -19 90 -76 149 -161 119
-172 300 -366 465 -498 172 -139 371 -258 494 -297 22 -7 62 -22 88 -33 44
-18 48 -23 44 -46 -20 -97 -506 -1118 -673 -1414 -37 -65 -64 -120 -61 -123 2
-3 174 -8 381 -11 l376 -6 0 39 c-1 21 -7 107 -15 189 l-14 150 273 455 c322
535 406 679 436 742 23 45 23 47 6 99 -25 75 -108 237 -371 724 -128 237 -239
444 -248 461 -16 30 -15 34 34 160 192 490 229 952 107 1334 -36 113 -99 242
-169 348 -133 198 -575 568 -706 589 -39 7 -40 2 -17 -102 34 -156 35 -448 3
-582 -17 -71 -66 -173 -147 -306 -117 -192 -149 -286 -158 -462 -10 -184 45
-431 145 -655 39 -89 46 -110 32 -110 -9 0 -59 11 -111 25 -297 80 -489 218
-596 428 -27 54 -52 97 -56 97 -9 0 -78 -210 -103 -314 -13 -55 -27 -93 -37
-100 -47 -29 -196 54 -326 183 -97 96 -165 187 -238 318 -75 133 -94 140 -153
58 -46 -65 -87 -160 -101 -235 -6 -36 -13 -75 -16 -86 -6 -34 -32 -36 -90 -10
-76 35 -228 141 -244 170 -11 21 -9 49 13 188 14 90 52 346 83 570 l57 407 96
21 c330 74 773 196 991 273 250 88 333 145 365 249 37 123 36 586 -3 795 l-19
102 41 6 c23 3 124 17 226 30 334 45 384 75 449 270 l30 90 273 7 c341 9 349
10 399 55 85 77 74 209 -30 331 l-28 33 -453 -19 -452 -19 -142 146 c-78 80
-252 260 -387 399 -294 305 -468 469 -575 541 -144 98 -436 344 -470 396 -21
32 -15 84 20 200 37 120 46 288 22 397 -48 216 -191 371 -392 423 -75 19 -222
26 -302 14z"/>
<path d="M12235 8344 c-246 -55 -485 -151 -656 -266 -399 -265 -576 -706 -442
-1097 49 -144 148 -320 298 -526 86 -118 116 -189 122 -285 6 -81 6 -81 -32
-135 -60 -87 -169 -162 -312 -215 -47 -17 -63 -27 -63 -41 0 -11 18 -58 39
-106 42 -95 69 -177 122 -372 l33 -123 306 5 c271 4 314 7 385 26 257 69 485
258 596 495 39 84 53 224 46 462 -5 159 -9 190 -31 258 -65 192 -135 294 -356
521 -91 94 -189 201 -218 239 -93 123 -132 235 -132 377 1 223 97 408 342 651
76 75 138 142 138 147 0 17 -65 11 -185 -15z"/>
<path d="M3260 7583 c0 -141 9 -170 134 -433 l103 -215 -9 -105 c-13 -161 -13
-456 0 -545 17 -115 49 -204 87 -242 48 -48 154 -77 285 -77 224 -1 293 57
309 257 14 171 48 224 292 457 242 230 316 348 363 580 27 130 45 169 87 181
100 26 133 -116 75 -315 -51 -171 -127 -306 -239 -423 -38 -40 -57 -68 -54
-77 4 -9 29 -72 58 -141 l51 -125 144 0 c307 0 653 82 1008 239 171 76 289
142 466 262 257 173 390 283 390 323 0 30 -61 130 -192 313 l-108 151 -83 6
c-92 6 -1393 24 -2464 33 l-703 6 0 -110z m727 -161 c34 -18 72 -70 79 -107
16 -89 -69 -195 -157 -195 -44 0 -113 42 -140 87 -85 138 72 293 218 215z"/>
<path d="M8334 3750 c12 -75 77 -255 136 -379 133 -274 330 -519 553 -686 77
-58 78 -58 59 -79 -10 -12 -136 -147 -278 -301 -541 -583 -686 -749 -738 -845
-28 -51 -92 -278 -81 -288 13 -14 333 -23 480 -14 86 5 158 12 161 15 3 3 -10
64 -30 135 -42 149 -42 156 -17 174 42 30 1125 1003 1170 1051 l24 26 -96 173
c-143 258 -245 497 -292 683 -17 67 -29 94 -46 107 -26 18 -955 268 -998 268
-10 0 -12 -9 -7 -40z"/>
</g>
</svg>
