<?xml version="1.0" standalone="no"?>
<!DOCTYPE svg PUBLIC "-//W3C//DTD SVG 20010904//EN"
 "http://www.w3.org/TR/2001/REC-SVG-20010904/DTD/svg10.dtd">
<svg version="1.0" xmlns="http://www.w3.org/2000/svg"
 width="1280.000000pt" height="1280.000000pt" viewBox="0 0 1280.000000 1280.000000"
 preserveAspectRatio="xMidYMid meet">
<metadata>
Created by potrace 1.16, written by Peter Selinger 2001-2019
</metadata>
<g transform="translate(0.000000,1280.000000) scale(0.100000,-0.100000)"
fill="#000000" stroke="none">
<path d="M7050 12669 c-160 -19 -276 -74 -383 -180 -83 -82 -127 -169 -135
-264 -5 -74 6 -87 55 -62 71 37 267 48 368 21 104 -27 298 -130 550 -294 241
-157 343 -197 480 -188 153 10 345 135 427 278 80 138 78 350 -4 515 -29 58
-77 105 -107 105 -45 0 -59 -18 -91 -123 -24 -79 -77 -142 -144 -173 -62 -29
-81 -29 -152 -4 -79 27 -143 71 -250 171 -98 91 -201 153 -301 182 -68 20
-218 28 -313 16z"/>
<path d="M8802 12131 c-75 -26 -89 -42 -97 -112 -24 -203 -281 -476 -490 -519
-132 -27 -353 9 -519 85 -43 19 -80 34 -81 33 -7 -7 49 -218 69 -263 44 -96
178 -219 301 -276 142 -66 430 -92 631 -56 173 31 348 106 486 209 113 83 261
251 328 371 37 67 42 65 -97 41 -105 -18 -235 -16 -255 4 -9 9 -12 34 -8 85
11 157 5 249 -18 294 -24 47 -73 84 -141 108 -52 18 -44 18 -109 -4z"/>
<path d="M6671 12045 c-186 -42 -364 -192 -466 -392 -48 -96 -65 -169 -72
-309 -14 -289 67 -572 212 -747 31 -38 77 -81 102 -97 95 -60 365 -98 474 -67
82 24 128 64 226 194 48 65 108 132 133 150 96 71 133 108 156 157 35 78 47
192 42 398 -4 165 -7 190 -30 250 -79 209 -236 380 -415 449 -75 29 -265 36
-362 14z m-53 -469 c188 -89 262 -112 457 -141 160 -24 145 -12 145 -116 0
-108 -14 -129 -84 -129 -100 0 -315 -80 -526 -195 -169 -93 -215 -110 -252
-94 -32 13 -62 72 -84 167 -20 85 -14 317 11 407 24 86 64 156 99 170 41 17
77 7 234 -69z"/>
<path d="M7225 10392 c-105 -99 -250 -152 -418 -152 -157 0 -289 48 -398 145
l-63 56 -23 -28 c-43 -51 -83 -128 -83 -160 0 -81 197 -251 422 -364 78 -39
108 -49 148 -49 81 0 204 53 355 153 155 103 245 198 245 257 0 25 -104 200
-119 200 -3 -1 -33 -26 -66 -58z"/>
<path d="M5940 10184 c-47 -13 -156 -43 -243 -66 -143 -37 -160 -44 -169 -67
-14 -34 6 -185 28 -219 16 -24 19 -25 98 -19 44 4 109 9 142 13 l62 7 6 -59
c28 -255 34 -783 16 -1314 -10 -287 -35 -698 -46 -771 -6 -32 -2 -39 32 -67
43 -36 254 -135 559 -262 274 -114 251 -109 259 -63 4 21 9 558 12 1193 l6
1156 -65 28 c-121 51 -374 230 -459 324 -20 22 -59 75 -88 118 -29 44 -55 82
-59 85 -3 4 -44 -4 -91 -17z"/>
<path d="M7589 10163 c-11 -27 -26 -59 -32 -73 -20 -44 -169 -184 -258 -243
-48 -32 -158 -91 -244 -133 l-158 -76 7 -1131 c3 -623 9 -1154 13 -1182 5 -32
13 -51 23 -53 9 -1 182 65 385 148 204 84 394 161 423 173 33 12 57 29 62 41
15 42 296 2423 286 2433 -4 4 -468 143 -479 143 -4 0 -17 -21 -28 -47z"/>
<path d="M8235 9748 c-2 -13 -18 -140 -35 -283 -29 -244 -112 -913 -126 -1017
-4 -27 -3 -48 1 -48 13 0 299 150 311 163 6 7 42 148 79 314 l68 302 -63 138
c-119 260 -213 453 -221 453 -5 0 -11 -10 -14 -22z"/>
<path d="M4149 9695 c-20 -7 -96 -41 -168 -75 -152 -70 -296 -120 -431 -146
-82 -16 -139 -19 -404 -18 l-309 2 7 -507 c18 -1348 43 -1703 162 -2341 170
-915 499 -1610 889 -1879 155 -108 201 -114 332 -45 113 59 179 108 278 208
525 530 878 1752 980 3395 16 252 39 1100 31 1108 -3 3 -83 9 -178 14 -391 19
-567 42 -708 91 -104 36 -341 149 -386 183 -37 28 -44 29 -95 10z m176 -620
c180 -71 472 -145 577 -145 102 0 115 -45 98 -340 -66 -1210 -225 -2098 -490
-2732 -114 -273 -340 -628 -400 -628 -62 0 -287 376 -388 650 -220 590 -342
1409 -382 2565 -5 165 -12 341 -15 391 l-5 91 57 11 c32 6 112 18 178 27 152
20 285 53 450 110 155 53 186 53 320 0z"/>
<path d="M8661 8797 c-6 -8 -31 -94 -55 -191 -24 -98 -47 -180 -50 -184 -4 -3
-93 -52 -199 -108 -182 -97 -192 -103 -195 -133 -4 -38 31 -146 57 -180 l19
-24 113 21 c63 12 168 37 234 55 l120 32 46 140 c26 77 52 170 59 207 12 61
11 72 -9 135 -27 82 -102 236 -117 241 -6 1 -16 -4 -23 -11z"/>
<path d="M8905 8068 c-62 -157 -56 -153 -303 -214 -179 -43 -212 -59 -212
-101 0 -66 34 -115 563 -812 l406 -534 -25 -66 c-14 -36 -36 -85 -50 -109 -31
-53 -22 -54 -229 30 -292 118 -318 127 -371 128 -64 0 -79 -16 -78 -82 0 -36
6 -54 25 -74 13 -14 105 -65 204 -114 99 -48 189 -97 199 -109 19 -21 19 -22
-4 -79 -59 -142 -699 -1601 -1330 -3027 -542 -1225 -726 -1659 -800 -1890 -74
-230 -123 -564 -87 -594 14 -11 21 -8 48 21 86 91 267 332 356 473 49 77 284
598 1321 2930 352 792 691 1550 752 1685 62 135 117 258 123 273 11 26 16 28
48 24 20 -2 113 -37 207 -76 97 -40 186 -71 205 -71 40 0 74 31 83 78 16 80
-6 96 -313 237 l-212 97 21 56 c32 88 30 87 181 87 145 0 182 11 238 72 104
111 86 271 -54 490 l-46 72 50 122 c62 153 69 194 39 232 -43 55 -117 22 -166
-75 -14 -27 -30 -48 -37 -45 -19 6 -75 85 -163 229 -268 438 -364 593 -417
673 -57 87 -113 155 -128 155 -4 0 -23 -42 -44 -92z"/>
<path d="M7710 7361 c-238 -93 -577 -234 -653 -272 -62 -31 -97 -56 -97 -69 0
-4 24 -23 54 -44 148 -102 386 -405 386 -490 0 -22 -8 -31 -45 -47 -113 -50
-419 -78 -658 -60 -140 10 -324 44 -414 75 -49 17 -51 36 -17 123 70 179 184
322 317 401 44 26 81 52 81 57 1 11 -181 91 -532 234 -256 104 -319 127 -327
119 -3 -3 -28 -135 -55 -294 -26 -159 -67 -373 -89 -476 -55 -255 -58 -284
-36 -308 19 -21 139 -63 210 -74 22 -3 92 -11 155 -16 63 -6 187 -26 275 -45
251 -54 276 -57 521 -62 236 -6 360 3 499 33 249 54 357 74 460 84 146 14 211
31 300 75 91 46 244 155 319 227 l59 57 -5 53 c-5 65 -32 108 -257 418 -86
118 -181 250 -209 293 -29 42 -56 77 -60 76 -4 0 -86 -31 -182 -68z"/>
<path d="M8230 6110 c-188 -98 -264 -119 -515 -145 -226 -23 -430 -77 -495
-132 -24 -20 -29 -30 -24 -51 13 -55 383 -1055 401 -1084 2 -4 59 48 126 115
197 200 276 236 537 246 91 4 171 10 178 15 42 25 37 84 -43 591 -74 464 -77
485 -84 485 -3 -1 -40 -19 -81 -40z"/>
<path d="M5472 6057 c-17 -19 -195 -991 -184 -1002 3 -3 87 -5 187 -5 197 0
215 -3 328 -61 104 -52 209 -138 293 -239 32 -39 62 -69 67 -67 10 3 16 16
171 402 145 360 256 652 256 675 0 24 -72 65 -217 124 -143 59 -216 76 -328
76 -148 0 -260 18 -406 66 -151 49 -152 49 -167 31z"/>
<path d="M8157 4864 c-156 -37 -275 -135 -413 -339 l-54 -80 69 -185 c85 -231
129 -336 145 -349 15 -12 44 46 220 442 116 260 176 414 183 469 5 34 3 39
-21 48 -34 13 -57 12 -129 -6z"/>
<path d="M5375 4840 c-84 -17 -122 -39 -139 -80 -9 -22 -40 -171 -71 -332 -31
-161 -58 -305 -61 -320 -8 -37 3 -36 116 8 132 51 186 59 262 39 126 -32 214
-113 286 -263 24 -52 48 -90 52 -85 12 12 121 272 169 400 47 128 63 211 49
259 -23 86 -202 291 -293 337 -27 13 -74 30 -103 36 -59 12 -206 13 -267 1z"/>
<path d="M4940 3273 c-19 -68 -205 -913 -365 -1663 l-158 -735 -121 -125
c-142 -145 -237 -255 -277 -319 -52 -80 -33 -191 44 -258 51 -45 84 -49 155
-20 116 46 554 318 644 399 44 39 11 -66 403 1303 322 1122 378 1326 367 1337
-4 4 -48 -7 -97 -24 -83 -30 -99 -33 -210 -32 -101 0 -130 4 -180 24 -78 30
-108 52 -145 106 -17 24 -35 44 -40 44 -5 0 -14 -17 -20 -37z"/>
<path d="M8716 3261 c-66 -56 -133 -91 -195 -103 -31 -5 -53 -17 -69 -35 -47
-57 -190 -380 -199 -453 -6 -46 5 -96 118 -530 168 -644 416 -1535 442 -1590
13 -27 106 -93 312 -222 269 -169 408 -227 471 -197 38 19 92 91 100 136 10
51 -17 126 -69 195 -23 31 -112 136 -197 232 l-155 176 -226 1163 c-250 1287
-245 1263 -264 1270 -7 3 -38 -16 -69 -42z"/>
</g>
</svg>
