<?xml version="1.0" standalone="no"?>
<!DOCTYPE svg PUBLIC "-//W3C//DTD SVG 20010904//EN"
 "http://www.w3.org/TR/2001/REC-SVG-20010904/DTD/svg10.dtd">
<svg version="1.0" xmlns="http://www.w3.org/2000/svg"
 width="1280.000000pt" height="1280.000000pt" viewBox="0 0 1280.000000 1280.000000"
 preserveAspectRatio="xMidYMid meet">
<metadata>
Created by potrace 1.16, written by Peter Selinger 2001-2019
</metadata>
<g transform="translate(0.000000,1280.000000) scale(0.100000,-0.100000)"
fill="#000000" stroke="none">
<path d="M7618 11617 c-134 -51 -291 -205 -432 -425 -71 -111 -184 -328 -276
-529 -46 -101 -88 -183 -93 -183 -32 0 -211 -65 -234 -84 l-27 -23 28 -26 c69
-64 397 -207 573 -251 151 -38 458 -85 661 -102 55 -5 82 -11 82 -19 0 -32
-34 -186 -57 -259 -48 -156 -140 -293 -219 -331 -32 -15 -53 -17 -133 -11
-148 10 -166 18 -246 99 -100 102 -176 258 -192 394 -3 29 -9 53 -14 53 -21 0
-188 -327 -211 -415 -11 -41 -10 -46 16 -85 39 -59 444 -478 480 -498 46 -24
156 -21 238 7 90 30 220 113 384 246 275 222 339 264 445 291 74 19 149 15
296 -17 52 -11 97 -19 99 -17 2 2 -29 38 -69 79 -96 101 -221 192 -337 246
-150 70 -161 76 -186 106 -16 19 -24 41 -24 65 l0 37 148 28 c144 28 302 73
302 86 0 4 -31 44 -70 89 -138 163 -152 192 -234 483 -132 467 -248 723 -391
865 -34 33 -84 71 -111 84 -58 29 -144 36 -196 17z"/>
<path d="M5405 10320 c-289 -16 -452 -62 -612 -171 -199 -138 -357 -389 -384
-614 -9 -75 1 -528 17 -777 l6 -98 -568 0 c-516 0 -886 6 -1755 26 l-295 7
-123 115 -122 115 -487 -108 c-492 -109 -882 -203 -937 -225 l-30 -12 42 -19
c55 -24 589 -220 853 -314 323 -114 455 -155 505 -155 43 0 52 6 173 106 70
58 136 112 147 118 16 10 337 8 1510 -10 2092 -31 3558 -53 4198 -60 l548 -7
61 -49 c83 -66 164 -114 261 -154 l82 -34 -320 7 c-176 4 -580 7 -898 7 -533
1 -580 0 -591 -16 -7 -9 -36 -124 -65 -255 -132 -598 -282 -1209 -417 -1702
-93 -340 -144 -546 -144 -583 0 -22 9 -32 44 -53 154 -90 736 -253 1019 -284
255 -29 733 -22 958 15 163 26 548 131 753 205 l89 32 -6 94 c-9 126 -39 332
-163 1093 -165 1019 -159 979 -143 995 8 7 77 48 154 90 163 89 201 113 350
215 l110 76 240 18 c517 37 747 81 1043 198 l127 50 655 -11 c814 -14 1224
-14 1272 -1 82 23 133 125 108 215 -16 56 -53 91 -112 104 -63 14 -421 28
-1123 42 l-590 12 -85 87 c-69 71 -101 96 -170 130 -113 57 -222 94 -411 140
-85 20 -165 43 -177 49 -26 14 -28 45 -7 115 8 27 15 62 15 79 0 27 -2 29 -27
23 -79 -17 -316 -36 -453 -36 -243 0 -358 24 -610 128 -126 51 -142 55 -236
60 -244 11 -395 -57 -673 -307 -152 -137 -198 -171 -290 -215 -170 -81 -387
-71 -528 25 -26 18 -102 86 -169 151 -78 76 -128 118 -142 118 -29 0 -37 -36
-57 -235 -26 -266 -26 -265 -184 -265 l-104 0 7 58 c41 339 48 616 21 798 -26
175 -86 328 -180 459 -57 80 -185 202 -263 253 -69 45 -237 114 -317 130 -77
16 -235 21 -400 12z"/>
<path d="M4480 8020 c0 -18 23 -288 50 -599 177 -1981 287 -2893 396 -3269 46
-158 82 -203 168 -210 73 -6 97 1 135 40 156 159 584 1489 926 2873 150 608
255 1071 255 1123 0 26 -4 30 -37 36 -76 13 -535 25 -1205 32 l-688 7 0 -33z"/>
<path d="M6009 5143 c-11 -13 -13 -58 -11 -212 l2 -196 -150 -150 c-99 -98
-150 -157 -150 -171 0 -11 27 -52 60 -90 33 -38 76 -88 96 -111 l36 -43 19
-817 c34 -1532 45 -1853 70 -1945 13 -51 91 -135 137 -148 50 -13 161 -13 203
2 53 18 117 66 145 107 43 65 45 102 84 1366 21 695 37 1090 46 1201 l6 71 97
21 c116 24 150 37 158 58 5 12 -35 176 -93 385 -3 9 36 65 96 138 100 122 170
218 170 234 0 12 -47 27 -205 62 -277 63 -562 151 -714 221 -86 39 -84 39
-102 17z"/>
<path d="M8680 5059 c-231 -79 -376 -121 -553 -160 -138 -30 -147 -34 -141
-53 3 -12 48 -107 99 -212 l93 -192 -29 -143 c-16 -79 -32 -174 -36 -211 -7
-79 -17 -71 150 -116 l98 -27 430 -835 c673 -1306 798 -1544 909 -1725 51 -84
109 -159 145 -187 64 -51 195 -27 277 50 104 97 115 166 54 332 -105 288 -362
925 -781 1935 -142 341 -260 628 -262 637 -4 11 26 53 86 122 l92 106 -148
152 c-98 101 -156 170 -171 201 -21 45 -52 162 -84 317 -11 52 -17 65 -33 67
-11 1 -99 -25 -195 -58z"/>
</g>
</svg>
