<?xml version="1.0" standalone="no"?>
<!DOCTYPE svg PUBLIC "-//W3C//DTD SVG 20010904//EN"
 "http://www.w3.org/TR/2001/REC-SVG-20010904/DTD/svg10.dtd">
<svg version="1.0" xmlns="http://www.w3.org/2000/svg"
 width="1280.000000pt" height="1280.000000pt" viewBox="0 0 1280.000000 1280.000000"
 preserveAspectRatio="xMidYMid meet">
<metadata>
Created by potrace 1.16, written by Peter Selinger 2001-2019
</metadata>
<g transform="translate(0.000000,1280.000000) scale(0.100000,-0.100000)"
fill="#000000" stroke="none">
<path d="M5260 12657 c-224 -93 -429 -323 -485 -542 -16 -65 -21 -280 -6 -289
5 -3 44 24 88 61 125 106 241 148 349 125 57 -11 331 -139 397 -184 l37 -25
-50 -72 c-118 -171 -539 -708 -622 -793 -56 -57 -87 -74 -158 -83 -156 -21
-237 -72 -292 -183 -30 -60 -33 -75 -32 -152 0 -47 4 -103 8 -126 10 -51 -2
-76 -99 -204 -162 -214 -205 -303 -174 -358 30 -53 117 -92 174 -78 36 9 98
68 165 156 32 41 67 84 79 94 l21 19 166 -339 c91 -186 203 -415 249 -509 95
-193 164 -304 222 -356 55 -50 28 -46 762 -117 l73 -7 -88 -79 c-49 -43 -120
-108 -157 -143 l-69 -64 56 -312 c102 -574 122 -723 113 -872 -9 -135 -25
-197 -57 -211 -83 -39 -1274 -278 -1638 -328 -502 -70 -1061 14 -1585 239 -87
37 -160 66 -162 63 -13 -12 -55 -259 -66 -377 -15 -173 -7 -581 14 -671 47
-205 192 -520 317 -690 38 -52 74 -102 79 -111 8 -13 -58 -55 -387 -249 -448
-264 -749 -445 -774 -468 -24 -20 -23 -59 7 -199 48 -229 205 -796 225 -817 5
-5 25 -2 47 7 36 14 373 169 509 234 l62 30 -152 230 c-83 127 -159 245 -169
262 l-18 30 41 11 c22 6 271 58 553 115 281 58 519 106 528 109 10 2 58 -30
115 -77 427 -347 1199 -714 2034 -968 222 -68 550 -154 1130 -299 631 -157
697 -179 734 -240 32 -56 140 -196 241 -315 270 -317 541 -519 860 -642 49
-20 107 -44 127 -54 42 -22 44 -10 -15 -144 -203 -466 -554 -1195 -671 -1392
-65 -111 -96 -168 -96 -178 0 -3 187 -5 415 -5 l415 0 0 48 c0 26 -7 118 -15
206 l-14 159 398 661 c219 363 403 670 408 681 9 17 -5 49 -87 200 -54 99
-219 404 -368 678 l-270 498 39 97 c57 139 116 312 144 422 86 344 84 789 -6
1071 -32 101 -135 302 -201 392 -78 105 -318 344 -430 427 -100 75 -276 178
-317 186 -42 9 -44 -11 -15 -144 16 -74 28 -164 31 -243 12 -259 -38 -428
-210 -718 -115 -192 -147 -303 -147 -512 0 -214 35 -379 131 -617 27 -67 49
-127 49 -132 0 -21 -30 -7 -174 80 -342 207 -503 344 -587 500 -25 47 -52 85
-59 85 -25 0 -55 -132 -103 -449 -8 -54 -19 -102 -25 -108 -28 -28 -333 184
-479 334 -134 138 -187 236 -203 382 -10 79 -31 130 -53 123 -41 -13 -114
-230 -147 -437 -25 -158 -39 -210 -55 -210 -37 0 -271 269 -372 426 -108 169
-273 498 -273 545 0 36 122 207 412 576 146 185 162 203 196 209 664 116 1281
280 1467 389 101 60 192 198 254 385 70 210 113 479 191 1185 28 253 55 474
59 490 l8 30 99 -95 c54 -52 189 -183 299 -290 203 -197 337 -313 384 -332 34
-13 253 -4 496 21 311 32 345 35 345 22 0 -6 -23 -68 -51 -139 -77 -190 -73
-260 18 -298 43 -19 103 -18 131 2 34 23 91 114 178 282 106 205 112 213 199
223 132 16 261 101 306 201 20 44 24 70 24 148 0 83 -3 102 -27 150 -15 30
-41 71 -58 91 l-31 36 272 552 c150 303 278 551 285 551 29 0 220 -148 327
-253 86 -85 111 -139 115 -248 4 -78 1 -93 -32 -179 -19 -52 -34 -96 -33 -97
2 -1 31 4 65 12 203 48 360 220 453 496 25 76 33 115 36 204 3 64 1 121 -5
136 -13 33 -27 36 -232 49 -85 5 -192 19 -238 30 -90 22 -263 84 -299 107 -25
17 -29 46 -12 90 28 73 -2 157 -68 188 -72 34 -173 -3 -203 -74 -21 -52 -54
-42 -250 77 l-115 70 -47 -82 c-44 -75 -108 -230 -108 -260 0 -8 61 -31 160
-61 89 -27 168 -54 178 -61 15 -11 12 -21 -33 -115 -136 -286 -506 -1044 -513
-1051 -10 -10 -249 -41 -684 -89 l-296 -33 -484 475 c-623 613 -769 749 -801
749 -31 0 -167 173 -167 212 0 12 30 38 83 72 218 140 382 360 423 566 70 351
-143 703 -489 809 -214 65 -532 37 -742 -66 -52 -26 -195 -130 -195 -142 1 -3
81 -66 178 -138 192 -144 277 -217 268 -231 -7 -11 -155 -40 -443 -86 -219
-36 -267 -51 -278 -87 -10 -30 4 -161 25 -245 30 -117 73 -189 164 -279 69
-68 101 -90 214 -149 72 -38 132 -72 132 -76 0 -25 -120 -26 -387 -5 -235 19
-591 53 -618 60 -13 2 -31 26 -49 62 -45 91 -391 822 -468 987 l-69 149 33 54
c64 106 681 914 696 912 4 -1 63 -61 132 -135 69 -73 130 -133 136 -134 6 0
35 26 65 58 93 97 166 210 155 237 -3 8 -51 47 -108 87 -187 132 -190 136
-154 179 21 24 26 41 26 82 0 157 -134 197 -274 83 l-42 -35 -105 111 c-205
219 -268 303 -319 433 -32 81 -54 115 -74 115 -6 0 -36 -11 -66 -23z"/>
<path d="M8053 11045 c-80 -22 -126 -49 -198 -116 l-66 -62 69 -71 c111 -114
199 -271 225 -398 l12 -63 57 -27 c103 -49 127 -110 158 -418 40 -383 82 -498
227 -609 157 -122 358 -175 525 -140 151 32 341 197 422 369 25 52 31 78 31
130 l0 65 -32 3 c-18 2 -82 -11 -143 -28 -126 -36 -201 -40 -256 -14 -46 22
-102 79 -120 121 -20 47 -34 195 -34 368 0 273 -19 362 -103 498 -181 290
-518 461 -774 392z"/>
<path d="M2340 10344 c-247 -21 -438 -48 -474 -66 -27 -14 -19 -52 67 -341
l74 -247 -109 -173 c-125 -197 -208 -359 -238 -467 -30 -107 -36 -280 -16
-454 19 -164 20 -231 5 -277 -7 -19 -44 -108 -84 -199 -128 -291 -175 -448
-175 -588 0 -47 6 -97 14 -115 35 -84 216 -195 366 -224 149 -30 242 15 289
141 29 77 59 122 122 182 83 77 170 125 422 228 442 182 652 395 703 714 22
140 22 141 51 168 27 25 71 31 103 14 10 -5 26 -30 36 -55 40 -107 -24 -357
-136 -529 -105 -160 -251 -285 -471 -401 -172 -91 -210 -127 -239 -224 -41
-138 -42 -132 36 -173 96 -50 376 -160 514 -201 231 -70 259 -72 810 -72 523
0 605 5 794 49 76 17 101 27 107 42 34 86 -29 733 -111 1150 -186 937 -615
1600 -1239 1914 -159 80 -400 156 -586 186 -96 15 -528 27 -635 18z m22 -1439
c53 -37 98 -120 98 -180 0 -63 -45 -143 -102 -182 -84 -55 -177 -55 -250 0
-59 46 -83 97 -83 177 1 92 40 155 127 203 52 29 155 20 210 -18z"/>
<path d="M1415 6089 c-108 -95 -330 -461 -410 -679 -26 -68 -29 -90 -33 -243
-2 -95 1 -217 7 -280 23 -217 72 -418 106 -431 27 -10 605 355 605 382 0 26
-71 193 -140 332 l-68 136 133 127 133 127 278 -136 c364 -177 514 -246 531
-242 10 2 -2 37 -48 128 -76 155 -156 358 -200 512 l-34 117 -285 70 c-340 84
-463 111 -507 111 -22 0 -44 -10 -68 -31z"/>
<path d="M9910 5714 c-158 -30 -342 -94 -503 -176 -99 -51 -306 -184 -365
-235 l-33 -28 32 -65 c87 -182 153 -363 184 -504 l6 -29 157 7 c170 8 267 -2
338 -34 53 -23 119 -90 136 -138 18 -52 14 -221 -11 -499 -19 -197 -20 -248
-11 -340 29 -291 99 -443 289 -633 144 -143 268 -217 453 -269 240 -67 609
-70 883 -6 78 18 346 104 358 114 4 4 -61 25 -145 45 -415 103 -650 251 -763
481 -53 107 -69 182 -69 320 0 145 8 184 89 436 89 275 106 388 86 586 -47
463 -309 805 -721 939 -74 23 -104 27 -225 30 -77 1 -151 0 -165 -2z"/>
<path d="M5980 2926 c0 -41 43 -176 104 -325 89 -217 154 -327 277 -472 161
-189 296 -312 401 -365 l56 -29 -151 -160 c-487 -515 -761 -819 -885 -983 -86
-114 -153 -245 -181 -356 -35 -133 -76 -120 334 -114 196 3 358 8 361 11 3 3
-17 74 -45 158 -41 122 -49 155 -39 165 15 13 1035 918 1210 1073 65 57 116
106 114 110 -2 3 -36 61 -75 129 -136 230 -307 616 -345 777 -21 87 -42 138
-64 152 -36 22 -1009 263 -1063 263 -5 0 -9 -15 -9 -34z"/>
</g>
</svg>
