<?xml version="1.0" standalone="no"?>
<!DOCTYPE svg PUBLIC "-//W3C//DTD SVG 20010904//EN"
 "http://www.w3.org/TR/2001/REC-SVG-20010904/DTD/svg10.dtd">
<svg version="1.0" xmlns="http://www.w3.org/2000/svg"
 width="1280.000000pt" height="1280.000000pt" viewBox="0 0 1280.000000 1280.000000"
 preserveAspectRatio="xMidYMid meet">
<metadata>
Created by potrace 1.16, written by Peter Selinger 2001-2019
</metadata>
<g transform="translate(0.000000,1280.000000) scale(0.100000,-0.100000)"
fill="#000000" stroke="none">
<path d="M5250 12650 c-536 -80 -1133 -114 -2025 -114 -748 -1 -980 9 -1794
74 -272 21 -381 25 -381 12 0 -39 2153 -5439 3332 -8357 602 -1491 765 -1855
827 -1855 24 0 29 20 41 170 11 139 27 257 41 311 8 34 14 38 67 52 135 38
555 92 652 84 36 -3 119 -22 185 -42 214 -65 322 -87 429 -89 l99 -1 122 485
c154 613 211 827 220 818 6 -6 53 -333 90 -633 40 -325 77 -586 101 -718 18
-95 27 -108 95 -128 247 -72 1011 -69 1509 6 184 28 474 96 558 131 l34 14 -7
72 c-21 228 -119 795 -345 2003 -90 484 -117 612 -131 621 -6 3 -50 -21 -99
-55 -49 -33 -122 -75 -162 -94 -330 -156 -806 -222 -1358 -186 -386 24 -671
88 -930 207 l-86 39 -304 -87 c-403 -115 -537 -147 -551 -133 -19 19 -31 298
-26 598 5 297 10 339 46 349 9 3 385 62 836 131 1564 239 1742 266 2115 326
1043 166 1039 165 1123 259 107 118 118 207 62 460 -110 493 -352 1389 -406
1505 -24 52 -57 83 -132 128 -216 130 -374 75 -782 -274 -257 -219 -413 -334
-590 -431 -115 -64 -276 -139 -361 -169 -138 -47 -401 -44 -553 7 -128 43
-220 105 -355 243 l-79 80 56 63 c31 35 83 92 117 128 l60 65 42 -50 c80 -95
223 -232 263 -252 99 -50 245 -55 380 -13 195 61 405 195 755 485 220 183 335
268 456 341 215 129 353 147 608 80 77 -20 157 -36 178 -36 32 0 38 3 38 22 0
91 -300 320 -668 512 -255 132 -292 160 -318 238 -19 60 -13 91 22 107 15 7
93 21 173 32 228 31 509 105 550 144 20 19 -10 63 -146 209 -200 217 -220 249
-273 431 -127 436 -349 734 -665 893 -87 43 -221 89 -338 114 -84 18 -135 22
-292 22 -164 0 -202 -3 -279 -22 -117 -29 -225 -77 -333 -147 -248 -162 -436
-376 -584 -665 -40 -79 -72 -129 -93 -145 -17 -13 -76 -38 -131 -55 -234 -73
-295 -99 -295 -124 0 -38 179 -167 358 -258 317 -161 1134 -348 1644 -378 92
-5 177 -14 188 -20 47 -25 50 -64 15 -237 -33 -162 -104 -375 -159 -480 -124
-231 -266 -333 -466 -333 -272 0 -525 184 -646 470 -44 104 -67 187 -100 351
-25 127 -37 170 -47 159 -2 -3 -59 -126 -127 -275 -242 -532 -248 -540 -658
-980 l-187 -199 -6 154 c-4 85 -10 989 -14 2008 -5 1018 -11 1851 -14 1851 -3
-1 -89 -14 -191 -29z m964 -4565 c36 -319 69 -740 64 -840 l-3 -70 -105 -22
c-340 -72 -695 -142 -699 -137 -10 10 -20 150 -20 295 l-1 147 353 382 c193
210 359 390 367 400 14 16 16 16 21 1 4 -9 14 -79 23 -156z"/>
<path d="M875 10804 c-5 -54 -5 -1528 -2 -3274 l5 -3175 67 -300 c129 -585
246 -1018 395 -1465 438 -1317 990 -2203 1499 -2403 62 -25 95 -31 181 -35
132 -6 199 10 335 78 174 86 325 219 540 474 96 114 109 127 120 112 7 -9 41
-101 75 -203 79 -240 118 -322 173 -367 94 -77 270 -134 373 -121 127 15 276
130 340 261 34 67 36 79 31 132 -17 157 -85 333 -2105 5362 -588 1466 -1280
3189 -1537 3830 -257 641 -471 1171 -475 1179 -5 9 -11 -27 -15 -85z"/>
<path d="M8515 6454 c-326 -51 -1371 -212 -2022 -312 -68 -10 -104 -20 -108
-30 -3 -8 -5 -56 -6 -108 -1 -111 13 -142 90 -198 183 -135 544 -206 1043
-206 587 0 1112 108 1345 278 47 35 97 126 113 207 5 28 13 137 16 243 l7 192
-34 -1 c-19 -1 -218 -30 -444 -65z"/>
<path d="M8850 2400 c-181 -32 -442 -50 -822 -58 -280 -6 -370 -11 -382 -21
-10 -8 -16 -29 -16 -55 0 -22 38 -308 85 -635 173 -1209 200 -1321 341 -1416
106 -72 134 -77 444 -83 270 -4 1360 9 2260 28 678 15 885 32 986 80 52 26
109 95 151 185 26 56 28 69 28 185 0 113 -2 129 -24 170 -43 81 -107 154 -157
182 -127 69 -285 86 -2082 232 -358 29 -654 55 -657 58 -3 3 -8 267 -12 586
-6 523 -8 582 -22 581 -9 -1 -63 -10 -121 -19z"/>
</g>
</svg>
