<?xml version="1.0" standalone="no"?>
<!DOCTYPE svg PUBLIC "-//W3C//DTD SVG 20010904//EN"
 "http://www.w3.org/TR/2001/REC-SVG-20010904/DTD/svg10.dtd">
<svg version="1.0" xmlns="http://www.w3.org/2000/svg"
 width="1280.000000pt" height="1280.000000pt" viewBox="0 0 1280.000000 1280.000000"
 preserveAspectRatio="xMidYMid meet">
<metadata>
Created by potrace 1.16, written by Peter Selinger 2001-2019
</metadata>
<g transform="translate(0.000000,1280.000000) scale(0.100000,-0.100000)"
fill="#000000" stroke="none">
<path d="M8726 12671 c-29 -46 -396 -1289 -396 -1339 0 -34 32 -81 142 -208
l78 -92 0 -1028 c0 -591 -5 -1060 -10 -1102 -9 -66 -14 -78 -51 -120 -23 -26
-53 -71 -67 -101 -43 -93 -37 -147 74 -733 l54 -288 0 -1402 0 -1403 -50 77
c-149 230 -455 828 -534 1045 -26 72 -54 137 -62 144 -19 15 -73 0 -574 -156
l-366 -114 -269 85 c-361 112 -585 177 -592 171 -13 -13 -22 -244 -23 -562 -1
-461 -15 -775 -41 -933 l-22 -126 25 -21 c42 -36 551 -192 660 -202 54 -5 58
-4 67 18 5 13 41 218 80 454 86 523 111 659 121 648 9 -10 40 -177 120 -658
33 -198 65 -388 71 -423 l11 -63 32 7 c17 3 186 51 376 104 758 216 930 263
938 256 24 -24 26 -184 29 -2159 l4 -2077 50 -48 c67 -62 85 -71 140 -72 38 0
52 6 83 33 32 28 38 40 48 102 7 49 12 995 15 3152 l4 3081 87 -41 c82 -40 92
-42 177 -42 106 0 157 19 230 86 57 53 91 109 105 175 10 44 7 69 -14 175 -38
182 -122 530 -242 994 -185 722 -201 768 -293 840 l-50 40 -1 1080 0 1081 95
112 c104 124 145 187 145 222 0 40 -246 908 -337 1185 -46 143 -56 164 -67
146z"/>
<path d="M6852 10674 c-125 -62 -246 -276 -371 -659 -72 -218 -146 -511 -161
-632 -26 -210 -49 -269 -168 -433 -38 -52 -75 -113 -83 -135 -16 -50 -17 -251
-1 -281 6 -12 31 -33 56 -48 47 -27 100 -86 160 -178 85 -130 246 -244 400
-283 226 -57 507 -39 688 43 121 56 203 130 311 283 99 142 188 182 462 210
66 6 123 15 128 19 4 3 -88 83 -205 176 -255 203 -354 298 -392 375 -14 31
-38 111 -52 178 -64 312 -241 856 -346 1066 -50 98 -130 217 -172 252 -44 37
-125 73 -167 73 -19 0 -58 -12 -87 -26z m-48 -896 c3 -13 6 -114 6 -225 l0
-203 128 0 129 0 12 131 c7 73 9 168 5 215 -6 72 -5 84 10 90 20 8 168 -38
212 -65 88 -54 119 -149 119 -366 0 -146 -1 -152 -29 -209 -77 -157 -267 -250
-476 -232 -230 18 -390 145 -430 340 -14 66 -8 129 22 261 28 121 53 187 83
215 19 18 148 64 196 69 4 1 9 -9 13 -21z"/>
<path d="M3535 8770 c-90 -8 -125 -23 -174 -74 -29 -30 -33 -40 -28 -70 3 -20
20 -57 38 -83 18 -26 244 -261 503 -520 l470 -473 216 0 217 0 454 458 c471
474 579 589 579 621 0 11 -26 48 -57 84 l-58 65 -1040 0 c-572 -1 -1076 -4
-1120 -8z"/>
<path d="M8225 8394 c-255 -34 -329 -66 -438 -187 -180 -200 -248 -252 -427
-330 l-75 -32 -290 0 c-313 0 -353 5 -474 60 -135 62 -287 203 -366 339 -27
47 -52 86 -56 86 -13 0 -19 -324 -19 -1127 l0 -842 143 -45 c466 -147 706
-216 747 -216 24 0 302 83 773 231 l167 53 1 336 c0 318 6 431 23 447 6 7 72
-26 343 -169 45 -23 85 -39 90 -35 11 11 21 471 22 1010 l1 437 -32 -1 c-18
-1 -78 -7 -133 -15z"/>
<path d="M5367 7832 l-429 -429 32 -99 c44 -137 46 -180 17 -290 l-24 -92 416
-416 c229 -229 419 -416 424 -416 4 0 7 488 7 1085 0 597 -3 1085 -8 1085 -4
0 -200 -193 -435 -428z"/>
<path d="M3307 7888 c-9 -494 -9 -1798 1 -1798 4 0 200 193 435 428 l428 428
-22 89 c-24 105 -22 138 20 258 l29 84 -437 437 c-240 240 -439 436 -442 436
-3 0 -9 -163 -12 -362z"/>
<path d="M3811 6246 l-514 -514 6 -449 c7 -485 17 -610 62 -747 73 -222 190
-377 690 -914 235 -253 443 -457 475 -467 12 -4 46 -4 76 0 43 5 64 15 106 49
85 69 449 468 687 752 170 203 247 313 330 474 l70 136 7 599 6 600 -499 498
-499 498 -50 -22 c-72 -31 -142 -49 -199 -49 -42 0 -144 29 -225 64 -11 4
-166 -145 -529 -508z"/>
<path d="M7935 4214 c-733 -231 -766 -243 -784 -296 -12 -33 -5 -203 24 -598
8 -107 20 -271 26 -365 l11 -170 -99 -183 c-55 -100 -106 -201 -114 -224 -13
-41 -13 -41 19 -68 18 -15 83 -56 145 -90 62 -35 113 -64 115 -65 1 -2 39
-290 82 -641 113 -905 153 -1172 185 -1235 24 -45 112 -116 168 -135 29 -10
80 -18 113 -18 86 1 151 35 243 127 l73 75 -11 698 c-6 385 -14 812 -17 951
l-6 252 118 78 c134 88 194 138 194 162 0 9 -74 123 -164 254 l-164 237 -6
123 c-3 67 -8 226 -11 352 -7 285 -23 659 -31 743 -4 36 -11 62 -18 62 -6 -1
-47 -12 -91 -26z"/>
<path d="M5926 4187 c-31 -82 -50 -320 -67 -857 l-12 -365 -163 -236 c-90
-130 -164 -246 -164 -256 0 -28 66 -85 198 -172 l113 -74 -6 -146 c-3 -80 -10
-479 -15 -886 -6 -407 -12 -770 -15 -806 l-5 -67 76 -72 c98 -93 162 -123 259
-123 83 0 180 37 221 86 72 86 89 177 229 1267 46 365 86 664 87 665 2 2 46
28 98 60 110 65 177 114 185 134 7 17 -46 130 -149 321 l-73 135 22 295 c45
577 56 838 37 867 -6 9 -814 273 -836 273 -2 0 -11 -19 -20 -43z"/>
</g>
</svg>
